# xmcd
#
# Track frame offsets: 
#        150
#        12055
#        26770
#        35700
#        53152
#        65490
#        75512
#        90197
#        108000
#        124815
#        136020
#        158312
#        174342
#        180730
#
# Disc length: 2585 seconds
#
# Revision: 0
# Processed by: cddbd v1.5.2PL0 Copyright (c) Steve Scherf et al.
# Submitted via: ExactAudioCopy v0.99pb4
#
DISCID=9a0a170e
DTITLE=Various Artist - Un siècle de tango [CD1)
DYEAR=1900
DGENRE=Tango
TTITLE0=La casita de mis viejos, tango - JuanCarlos Cobian
TTITLE1=Chiquilin de Bachin, valse - Astor Piazzolla and Horacio Ferrer
TTITLE2=El Choclo, tango - Angel Villoldo
TTITLE3=La Cumparsita, tango - G. Matos Rodriguez and Pascual Contursi, 
TTITLE3=Enrique P. Maroni
TTITLE4=La Punalada, milonga - Pintin Castellanos
TTITLE5=Palomita blanca, valse - Anselmo Aieta
TTITLE6=Milonga triste, milonga - Sebastian Piana and Homero Manzi
TTITLE7=Quejas de bandoneon, tango - Juan de Dios Filiberto
TTITLE8=Volver, tango - Carlos Gardel and Alfredo Le Pera
TTITLE9=Calentisima, milonga - Leopoldo Federico and Osvaldo Berlinghier
TTITLE9=i
TTITLE10=Jalousie, tango - Jacob Gades
TTITLE11=Por una cabez, tango - Carlos Gardel and Alfredo Le Pera
TTITLE12=El esquinao, tango - Angel Villoldo
TTITLE13=Azabache, milonga-candombe - Enrique Francini, Héctor Stampon
TTITLE13=i and Virgilio Sposito
EXTD=
EXTT0=
EXTT1=
EXTT2=
EXTT3=
EXTT4=
EXTT5=
EXTT6=
EXTT7=
EXTT8=
EXTT9=
EXTT10=
EXTT11=
EXTT12=
EXTT13=
PLAYORDER=
